<svg id="svg" version="1.1" xmlns="http://www.w3.org/2000/svg" xmlns:xlink="http://www.w3.org/1999/xlink" width="400" height="400" viewBox="0, 0, 400,400"><g id="svgg"><path id="path0" d="M149.833 154.583 L 149.833 215.333 155.500 215.333 L 161.166 215.333 161.208 165.831 L 161.250 116.328 168.333 121.830 C 172.229 124.857,180.329 131.151,186.333 135.817 C 192.338 140.484,197.944 144.839,198.792 145.495 L 200.333 146.688 200.333 139.612 L 200.333 132.536 197.125 130.068 C 195.360 128.710,191.517 125.754,188.583 123.499 C 185.650 121.244,179.800 116.744,175.583 113.500 C 171.367 110.255,166.192 106.279,164.083 104.664 C 161.975 103.049,159.050 100.799,157.583 99.665 C 151.893 95.262,150.018 93.833,149.927 93.833 C 149.876 93.833,149.833 121.171,149.833 154.583 M265.155 104.958 C 260.399 108.765,254.501 113.397,250.724 116.293 C 248.326 118.131,245.851 120.034,245.224 120.521 C 244.597 121.008,242.321 122.762,240.167 124.418 C 225.811 135.457,214.751 143.998,212.750 145.589 C 209.751 147.973,202.276 153.763,201.862 154.021 C 201.518 154.236,202.210 154.746,191.667 146.507 C 189.421 144.752,185.787 141.914,183.591 140.200 C 181.395 138.486,178.687 136.371,177.573 135.500 C 176.459 134.629,174.393 133.019,172.982 131.922 C 171.571 130.825,169.537 129.231,168.462 128.380 C 167.387 127.529,166.468 126.833,166.420 126.833 C 166.372 126.833,166.333 130.004,166.333 133.879 L 166.333 140.925 167.458 141.782 C 168.077 142.253,170.279 143.976,172.352 145.611 C 191.185 160.463,201.342 168.341,201.643 168.329 C 201.702 168.326,202.284 167.895,202.936 167.371 C 203.588 166.846,205.714 165.179,207.660 163.667 C 209.606 162.154,213.111 159.417,215.449 157.583 C 217.786 155.750,220.134 153.912,220.665 153.500 C 221.197 153.087,223.118 151.587,224.935 150.167 C 226.751 148.746,228.440 147.433,228.688 147.250 C 228.936 147.067,230.926 145.526,233.111 143.827 C 247.496 132.637,255.654 126.333,255.750 126.333 C 255.796 126.333,255.833 146.358,255.833 170.833 L 255.833 215.333 261.250 215.333 L 266.667 215.333 266.667 159.583 C 266.667 128.921,266.643 103.833,266.614 103.833 C 266.585 103.833,265.928 104.340,265.155 104.958 " stroke="none" fill="#0493fb" fill-rule="evenodd"></path></g></svg>