<!DOCTYPE svg PUBLIC "-//W3C//DTD SVG 1.1//EN" "http://www.w3.org/Graphics/SVG/1.1/DTD/svg11.dtd">
<!-- Uploaded to: SVG Repo, www.svgrepo.com, Transformed by: SVG Repo Mixer Tools -->
<svg height="800px" width="800px" version="1.1" id="Layer_1" xmlns="http://www.w3.org/2000/svg" xmlns:xlink="http://www.w3.org/1999/xlink" viewBox="0 0 512 512" xml:space="preserve">
<g id="SVGRepo_bgCarrier" stroke-width="0"/>
<g id="SVGRepo_iconCarrier"> <circle style="fill:#033fa0;" cx="256" cy="256" r="256"/> <circle style="fill:#FFFFFF;" cx="185.744" cy="102.208" r="32"/> <g> <path style="fill:#0080ff;" d="M184.24,210.272l-30.928-67.04c0,0-32.432,0.432-32.432,30.272s0,36.768,0,36.768 S184.448,210.272,184.24,210.272z"/> <path style="fill:#0080ff;" d="M187.264,210.272l30.928-67.04c0,0,32.432,0.432,32.432,30.272s0,36.768,0,36.768 S187.056,210.272,187.264,210.272z"/> </g> <g> <polygon style="fill:#FFFFFF;" points="185.744,143.232 163.472,143.232 185.744,192.528 208.032,143.232 "/> <circle style="fill:#FFFFFF;" cx="345.744" cy="262.208" r="32"/> </g> <g> <path style="fill:#0080ff;" d="M344.24,370.272l-30.928-67.04c0,0-32.432,0.432-32.432,30.272s0,36.768,0,36.768 S344.448,370.272,344.24,370.272z"/> <path style="fill:#0080ff;" d="M347.264,370.272l30.928-67.04c0,0,32.432,0.432,32.432,30.272s0,36.768,0,36.768 S347.056,370.272,347.264,370.272z"/> </g> <polygon style="fill:#FFFFFF;" points="345.744,303.232 323.472,303.232 345.744,352.528 368.032,303.232 "/> <g> <path style="fill:#0080ff;" d="M283.328,139.264v16.512c26.464,7.232,48.704,24.624,62.304,47.76h18.112 C348.112,171.552,318.752,147.552,283.328,139.264z"/> <path style="fill:#0080ff;" d="M152,256c0-4.704,0.416-9.28,1.024-13.824h-16.16C136.336,246.72,136,251.328,136,256 c0,62.464,47.984,113.888,109.04,119.44v-16.032C192.832,353.92,152,309.648,152,256z"/> </g> </g>
</svg>